<mxfile host="app.diagrams.net" modified="2021-11-16T14:34:41.079Z" agent="5.0 (Windows NT 10.0; Win64; x64) AppleWebKit/537.36 (KHTML, like Gecko) Chrome/95.0.4638.69 Safari/537.36" etag="96EIs8y3Bp4SYXtXbML-" version="15.7.4" type="github">
  <diagram id="kgpKYQtTHZ0yAKxKKP6v" name="Page-1">
    <mxGraphModel dx="1038" dy="547" grid="1" gridSize="10" guides="1" tooltips="1" connect="1" arrows="1" fold="1" page="1" pageScale="1" pageWidth="850" pageHeight="1100" math="0" shadow="0">
      <root>
        <mxCell id="0" />
        <mxCell id="1" parent="0" />
        <mxCell id="3nuBFxr9cyL0pnOWT2aG-5" value="서버" style="shape=umlLifeline;perimeter=lifelinePerimeter;container=1;collapsible=0;recursiveResize=0;rounded=0;shadow=0;strokeWidth=1;" parent="1" vertex="1">
          <mxGeometry x="360" y="200" width="100" height="360" as="geometry" />
        </mxCell>
        <mxCell id="3nuBFxr9cyL0pnOWT2aG-6" value="" style="points=[];perimeter=orthogonalPerimeter;rounded=0;shadow=0;strokeWidth=1;" parent="3nuBFxr9cyL0pnOWT2aG-5" vertex="1">
          <mxGeometry x="45" y="80" width="10" height="60" as="geometry" />
        </mxCell>
        <mxCell id="7siurLAmKOmS3h8dv9ry-14" value="출력()" style="verticalAlign=bottom;endArrow=block;entryX=1;entryY=0;shadow=0;strokeWidth=1;" edge="1" parent="3nuBFxr9cyL0pnOWT2aG-5">
          <mxGeometry relative="1" as="geometry">
            <mxPoint x="45" y="235" as="sourcePoint" />
            <mxPoint x="-175" y="235" as="targetPoint" />
          </mxGeometry>
        </mxCell>
        <mxCell id="7siurLAmKOmS3h8dv9ry-25" value="" style="points=[];perimeter=orthogonalPerimeter;rounded=0;shadow=0;strokeWidth=1;" vertex="1" parent="3nuBFxr9cyL0pnOWT2aG-5">
          <mxGeometry x="45" y="160" width="10" height="80" as="geometry" />
        </mxCell>
        <mxCell id="3nuBFxr9cyL0pnOWT2aG-8" value="마이페이지 버튼 클릭()" style="verticalAlign=bottom;endArrow=block;entryX=0;entryY=0;shadow=0;strokeWidth=1;" parent="1" edge="1">
          <mxGeometry relative="1" as="geometry">
            <mxPoint x="180" y="291.00000000000034" as="sourcePoint" />
            <mxPoint x="405" y="291.00000000000034" as="targetPoint" />
          </mxGeometry>
        </mxCell>
        <mxCell id="3nuBFxr9cyL0pnOWT2aG-9" value="회원 정보 버튼, 방문기록 페이지 버튼" style="verticalAlign=bottom;endArrow=block;entryX=1;entryY=0;shadow=0;strokeWidth=1;" parent="1" edge="1">
          <mxGeometry relative="1" as="geometry">
            <mxPoint x="405" y="321" as="sourcePoint" />
            <mxPoint x="185" y="321.00000000000006" as="targetPoint" />
          </mxGeometry>
        </mxCell>
        <mxCell id="7siurLAmKOmS3h8dv9ry-9" value="" style="endArrow=none;dashed=1;html=1;rounded=0;" edge="1" parent="1">
          <mxGeometry width="50" height="50" relative="1" as="geometry">
            <mxPoint x="175" y="670" as="sourcePoint" />
            <mxPoint x="175" y="250" as="targetPoint" />
          </mxGeometry>
        </mxCell>
        <mxCell id="7siurLAmKOmS3h8dv9ry-10" value="회원 방문자" style="shape=umlActor;verticalLabelPosition=bottom;verticalAlign=top;html=1;outlineConnect=0;" vertex="1" parent="1">
          <mxGeometry x="170" y="180" width="20" height="40" as="geometry" />
        </mxCell>
        <mxCell id="3nuBFxr9cyL0pnOWT2aG-2" value="" style="points=[];perimeter=orthogonalPerimeter;rounded=0;shadow=0;strokeWidth=1;" parent="1" vertex="1">
          <mxGeometry x="170" y="270" width="10" height="380" as="geometry" />
        </mxCell>
        <mxCell id="7siurLAmKOmS3h8dv9ry-13" value="회원 정보 버튼 클릭()" style="verticalAlign=bottom;endArrow=block;entryX=0;entryY=0;shadow=0;strokeWidth=1;" edge="1" parent="1">
          <mxGeometry relative="1" as="geometry">
            <mxPoint x="180" y="369.0000000000002" as="sourcePoint" />
            <mxPoint x="405" y="369.0000000000002" as="targetPoint" />
          </mxGeometry>
        </mxCell>
        <mxCell id="7siurLAmKOmS3h8dv9ry-15" value=":회원정보DB" style="shape=umlLifeline;perimeter=lifelinePerimeter;container=1;collapsible=0;recursiveResize=0;rounded=0;shadow=0;strokeWidth=1;" vertex="1" parent="1">
          <mxGeometry x="610" y="200" width="145" height="470" as="geometry" />
        </mxCell>
        <mxCell id="7siurLAmKOmS3h8dv9ry-16" value="" style="points=[];perimeter=orthogonalPerimeter;rounded=0;shadow=0;strokeWidth=1;" vertex="1" parent="7siurLAmKOmS3h8dv9ry-15">
          <mxGeometry x="67.5" y="160" width="10" height="70" as="geometry" />
        </mxCell>
        <mxCell id="7siurLAmKOmS3h8dv9ry-17" value="이름, 전화번호, 이메일, 소속" style="verticalAlign=bottom;endArrow=block;shadow=0;strokeWidth=1;exitX=0.25;exitY=0.757;exitDx=0;exitDy=0;exitPerimeter=0;" edge="1" parent="7siurLAmKOmS3h8dv9ry-15" source="7siurLAmKOmS3h8dv9ry-16">
          <mxGeometry relative="1" as="geometry">
            <mxPoint x="45" y="213" as="sourcePoint" />
            <mxPoint x="-190" y="213" as="targetPoint" />
          </mxGeometry>
        </mxCell>
        <mxCell id="7siurLAmKOmS3h8dv9ry-27" value="" style="points=[];perimeter=orthogonalPerimeter;rounded=0;shadow=0;strokeWidth=1;" vertex="1" parent="7siurLAmKOmS3h8dv9ry-15">
          <mxGeometry x="67.5" y="300" width="10" height="20" as="geometry" />
        </mxCell>
        <mxCell id="7siurLAmKOmS3h8dv9ry-18" value="회원정보 요청()" style="verticalAlign=bottom;endArrow=block;shadow=0;strokeWidth=1;" edge="1" parent="1" target="7siurLAmKOmS3h8dv9ry-15">
          <mxGeometry relative="1" as="geometry">
            <mxPoint x="420" y="380" as="sourcePoint" />
            <mxPoint x="565" y="381.00000000000034" as="targetPoint" />
          </mxGeometry>
        </mxCell>
        <mxCell id="7siurLAmKOmS3h8dv9ry-24" value="방문 기록 페이지 버튼()" style="verticalAlign=bottom;endArrow=block;shadow=0;strokeWidth=1;exitX=1;exitY=0.816;exitDx=0;exitDy=0;exitPerimeter=0;" edge="1" parent="1" source="3nuBFxr9cyL0pnOWT2aG-2">
          <mxGeometry relative="1" as="geometry">
            <mxPoint x="190" y="580.0000000000005" as="sourcePoint" />
            <mxPoint x="380" y="580" as="targetPoint" />
          </mxGeometry>
        </mxCell>
        <mxCell id="7siurLAmKOmS3h8dv9ry-19" value="회원정보수정()" style="verticalAlign=bottom;endArrow=block;entryX=0;entryY=0;shadow=0;strokeWidth=1;" edge="1" parent="1">
          <mxGeometry relative="1" as="geometry">
            <mxPoint x="180" y="490.00000000000034" as="sourcePoint" />
            <mxPoint x="405" y="490.00000000000034" as="targetPoint" />
          </mxGeometry>
        </mxCell>
        <mxCell id="7siurLAmKOmS3h8dv9ry-26" value="" style="points=[];perimeter=orthogonalPerimeter;rounded=0;shadow=0;strokeWidth=1;" vertex="1" parent="1">
          <mxGeometry x="405" y="480" width="10" height="60" as="geometry" />
        </mxCell>
        <mxCell id="7siurLAmKOmS3h8dv9ry-20" value="회원정보 수정 페이지" style="verticalAlign=bottom;endArrow=block;entryX=1;entryY=0;shadow=0;strokeWidth=1;" edge="1" parent="1">
          <mxGeometry relative="1" as="geometry">
            <mxPoint x="400" y="520" as="sourcePoint" />
            <mxPoint x="180" y="520" as="targetPoint" />
          </mxGeometry>
        </mxCell>
        <mxCell id="7siurLAmKOmS3h8dv9ry-23" value="이름, 전화번호, 이메일, 소속, 얼굴 영싱" style="verticalAlign=bottom;endArrow=block;shadow=0;strokeWidth=1;exitX=-0.07;exitY=0.51;exitDx=0;exitDy=0;exitPerimeter=0;" edge="1" parent="1" source="7siurLAmKOmS3h8dv9ry-27">
          <mxGeometry relative="1" as="geometry">
            <mxPoint x="655.5" y="510" as="sourcePoint" />
            <mxPoint x="420" y="510" as="targetPoint" />
          </mxGeometry>
        </mxCell>
        <mxCell id="7siurLAmKOmS3h8dv9ry-32" value="ref" style="shape=umlFrame;whiteSpace=wrap;html=1;" vertex="1" parent="1">
          <mxGeometry x="390" y="560" width="190" height="100" as="geometry" />
        </mxCell>
        <mxCell id="7siurLAmKOmS3h8dv9ry-33" value="방문 기록 확인 기능" style="text;html=1;strokeColor=none;fillColor=none;align=center;verticalAlign=middle;whiteSpace=wrap;rounded=0;" vertex="1" parent="1">
          <mxGeometry x="425" y="600" width="110" height="30" as="geometry" />
        </mxCell>
        <mxCell id="7siurLAmKOmS3h8dv9ry-35" value="마이페이지 기능 - 회원방문자" style="shape=umlFrame;whiteSpace=wrap;html=1;fillColor=default;width=92;height=50;" vertex="1" parent="1">
          <mxGeometry x="58" y="160" width="772" height="520" as="geometry" />
        </mxCell>
      </root>
    </mxGraphModel>
  </diagram>
</mxfile>
